<svg xmlns="http://www.w3.org/2000/svg" viewBox="0 0 242.5 44.6" width="242.5" height="44.6"><g fill="#FFF"><path d="M37.5 29.8H21.1v-19h-4v23h24.4v-23h-4zM46.3 33.8h4v-19h16.3v19h4v-23H46.3zM86.3 33.8h22.3v-4H90.3v-15h18.3v-4H86.3zM173.2 33.8h4V14.9h16.4v18.9h4v-23h-24.4zM143.8 33.8h4v-9.2h4.7l9.1 9.2 2.8-2.9-6.2-6.3h9.9V10.8h-24.3v23zm4-18.9h16.3v5.7h-16.3v-5.7zM115.8 33.8h22.8v-23h-22.8v23zm4-19h14.8v14.9h-14.8V14.8zM76.1 10.8h4v23h-4zM202.6 33.8h22.8v-23h-22.8v23zm4-19h14.8v14.9h-14.8V14.8z"/></g></svg>