<?xml version="1.0" encoding="utf-8"?>
<svg version="1.1" xmlns="http://www.w3.org/2000/svg" xmlns:xlink="http://www.w3.org/1999/xlink" x="0px" y="0px"
	 viewBox="0 0 242.5 44.6" width="242.5" height="44.6" enable-background="new 0 0 242.5 44.6" xml:space="preserve">
<g>
	<polygon fill="#FFFFFF" points="37.5,29.8 21.1,29.8 21.1,10.8 17.1,10.8 17.1,33.8 41.5,33.8 41.5,10.8 37.5,10.8 	"/>
	<polygon fill="#FFFFFF" points="46.3,33.8 50.3,33.8 50.3,14.8 66.6,14.8 66.6,33.8 70.6,33.8 70.6,10.8 46.3,10.8 	"/>
	<polygon fill="#FFFFFF" points="86.3,33.8 108.6,33.8 108.6,29.8 90.3,29.8 90.3,14.8 108.6,14.8 108.6,10.8 86.3,10.8 	"/>
	<polygon fill="#FFFFFF" points="173.2,33.8 177.2,33.8 177.2,14.9 193.6,14.9 193.6,33.8 197.6,33.8 197.6,10.8 173.2,10.8 	"/>
	<path fill="#FFFFFF" d="M143.8,33.8h4v-9.2h4.7l9.1,9.2l2.8-2.9l-6.2-6.3h9.9V10.8h-24.3V33.8z M147.8,14.9h16.3v5.7h-16.3V14.9z"
		/>
	<path fill="#FFFFFF" d="M115.8,33.8h22.8v-23h-22.8V33.8z M119.8,14.8h14.8v14.9h-14.8V14.8z"/>
	<rect x="76.1" y="10.8" fill="#FFFFFF" width="4" height="23"/>
	<path fill="#FFFFFF" d="M202.6,33.8h22.8v-23h-22.8V33.8z M206.6,14.8h14.8v14.9h-14.8V14.8z"/>
</g>
</svg>
